<?xml version="1.0" encoding="utf-8"?>
<!-- Generator: Adobe Illustrator 24.2.1, SVG Export Plug-In . SVG Version: 6.00 Build 0)  -->
<svg version="1.1" id="Layer_1" xmlns="http://www.w3.org/2000/svg" xmlns:xlink="http://www.w3.org/1999/xlink" x="0px" y="0px"
	 viewBox="0 0 228.82 232.38" style="enable-background:new 0 0 228.82 232.38;" xml:space="preserve">
<style type="text/css">
	.st0{fill:#3073BA;}
	.st1{font-family:'Font Awesome 5 Brands';}
	.st2{font-size:24px;}
</style>
<g>
	<path class="st0" d="M91.01,32.47c0.34-0.69,0.49-0.85,0.49-1c-0.25-13.46-0.6-12.77,13.33-12.76c33.01,0.02,66.03,0,99.04,0.02
		c7.62,0,8.16,0.56,8.17,8.15c0.01,6.91,0,13.82,0,21.51c9.98-2.4,19.52-4.65,29.04-6.98c24.74-6.06,49.48-12.16,74.22-18.23
		c5.33-1.31,7.35,0.15,7.35,5.63c0.03,63.74-0.01,127.47,0.09,191.21c0.01,5.55-2.91,6.33-7.44,6.32
		c-47.92-0.07-95.85-0.05-143.77-0.05c-51.3,0-102.59,0-153.89,0c-7.66,0-8.06-0.42-8.06-8.23c0-67.11,0-134.22,0-201.33
		c0-8.31,1.57-9.46,9.45-6.96C41.8,16.97,64.56,24.2,87.32,31.43C88.49,31.79,89.68,32.09,91.01,32.47z M26.67,217.42
		c0-2.32,0-4.23,0-6.15c0-39.59,0-79.19,0-118.78c0-7.53,0.61-8.13,8.24-8.13c83.08,0,166.15,0,249.23,0c7.87,0,8.5,0.61,8.5,8.44
		c0.01,39.59,0.01,79.19,0.01,118.78c0,1.87,0,3.74,0,5.53c7.54,0,14.34,0,20.95,0c0-61.58,0-122.72,0-184.29
		c-2.01,0.39-3.55,0.64-5.07,1.01c-26.99,6.57-53.97,13.13-80.95,19.75c-4.96,1.22-11.83,1.2-14.27,4.43
		c-2.61,3.46-1.28,10.09-1.2,15.33c0.07,4.7-1.59,6.76-6.49,6.74c-35.86-0.1-71.72-0.1-107.57,0c-4.87,0.01-6.62-2.04-6.52-6.75
		c0.18-9.05-0.11-18.11,0.14-27.16c0.09-3.25-1.06-4.61-4.03-5.53c-13.87-4.26-27.68-8.69-41.51-13.08
		c-9.06-2.87-18.1-5.78-27.55-8.79c0,66.66,0,132.57,0,198.63C21.24,217.42,23.53,217.42,26.67,217.42z M203.12,71.12
		c0-14.53,0-28.79,0-43.02c-34.43,0-68.53,0-102.56,0c0,14.57,0,28.68,0,43.02C134.89,71.12,168.87,71.12,203.12,71.12z
		 M74.13,217.39c0-41.74,0-82.98,0-124.18c-12.99,0-25.54,0-38.37,0c0,41.51,0,82.76,0,124.18
		C48.7,217.39,61.26,217.39,74.13,217.39z M283.24,217.57c0-41.93,0-83.12,0-124.19c-11.69,0-22.92,0-34.3,0
		c0,41.51,0,82.58,0,123.94c1.21,0.09,2.24,0.24,3.27,0.24C262.47,217.57,272.72,217.57,283.24,217.57z M129.31,194.14
		c0-7.09,0-13.52,0-19.96c-6.31,0-12.22,0-18.29,0c0,6.77,0,13.22,0,19.96C117.19,194.14,123.09,194.14,129.31,194.14z
		 M239.56,174.26c-6.35,0-12.42,0-18.47,0c0,6.86,0,13.31,0,19.85c6.36,0,12.3,0,18.47,0C239.56,187.31,239.56,180.85,239.56,174.26
		z M101.89,135.58c0-6.99,0-13.42,0-19.9c-6.34,0-12.37,0-18.26,0c0,6.89,0,13.32,0,19.9C89.84,135.58,95.64,135.58,101.89,135.58z
		 M111.12,115.48c0,7.05,0,13.5,0,19.91c6.27,0,12.18,0,18.27,0c0-6.79,0-13.22,0-19.91C123.16,115.48,117.26,115.48,111.12,115.48z
		 M220.95,135.33c6.44,0,12.51,0,18.49,0c0-6.88,0-13.33,0-19.8c-6.34,0-12.28,0-18.49,0C220.95,122.15,220.95,128.46,220.95,135.33
		z M102.02,145c-6.41,0-12.33,0-18.35,0c0,6.91,0,13.48,0,19.9c6.38,0,12.3,0,18.35,0C102.02,158.18,102.02,151.86,102.02,145z
		 M129.35,165.11c0-7.04,0-13.49,0-20.13c-6.26,0-12.17,0-18.18,0c0,6.89,0,13.47,0,20.13
		C117.36,165.11,123.14,165.11,129.35,165.11z M220.88,164.9c6.61,0,12.67,0,18.62,0c0-6.85,0-13.31,0-19.77
		c-6.38,0-12.41,0-18.62,0C220.88,151.89,220.88,158.18,220.88,164.9z M101.91,194.24c0-6.95,0-13.39,0-19.95
		c-6.32,0-12.35,0-18.31,0c0,6.87,0,13.31,0,19.95C89.79,194.24,95.59,194.24,101.91,194.24z M211.64,165.05c0-7.09,0-13.57,0-19.92
		c-6.27,0-12.17,0-17.9,0c0,6.91,0,13.35,0,19.92C199.92,165.05,205.67,165.05,211.64,165.05z M138.56,135.34
		c6.42,0,12.31,0,18.08,0c0-6.85,0-13.28,0-19.72c-6.27,0-12.15,0-18.08,0C138.56,122.34,138.56,128.65,138.56,135.34z
		 M193.56,135.42c6.21,0,12.09,0,18.18,0c0-6.77,0-13.22,0-19.88c-6.16,0-12.05,0-18.18,0C193.56,122.17,193.56,128.5,193.56,135.42
		z M156.85,145.07c-6.34,0-12.22,0-18.17,0c0,6.86,0,13.31,0,19.86c6.2,0,12.1,0,18.17,0C156.85,158.23,156.85,151.89,156.85,145.07
		z M184.12,165.14c0-6.98,0-13.45,0-20.19c-6.05,0-11.8,0-17.78,0c0,6.88,0,13.46,0,20.19C172.37,165.14,178,165.14,184.12,165.14z
		 M166.21,135.36c6.36,0,12.1,0,17.87,0c0-6.84,0-13.28,0-19.87c-6.09,0-11.84,0-17.87,0C166.21,122.21,166.21,128.65,166.21,135.36
		z M156.73,174.18c-6.18,0-12.07,0-17.89,0c0,6.89,0,13.46,0,19.89c6.21,0,11.95,0,17.89,0
		C156.73,187.26,156.73,180.83,156.73,174.18z M166.22,174.04c0,6.89,0,13.35,0,19.96c6.16,0,12.02,0,17.83,0c0-6.9,0-13.35,0-19.96
		C178.06,174.04,172.44,174.04,166.22,174.04z M193.66,174.11c0,6.86,0,13.3,0,19.96c6.21,0,12.07,0,18.07,0c0-6.82,0-13.27,0-19.96
		C205.71,174.11,199.95,174.11,193.66,174.11z M83.62,93.22c0,4.79,0,8.92,0,13.06c6.32,0,12.23,0,18.27,0c0-4.5,0-8.65,0-13.06
		C95.68,93.22,89.78,93.22,83.62,93.22z M111.15,93.22c0,4.55,0,8.81,0,13.04c6.29,0,12.18,0,18.21,0c0-4.51,0-8.65,0-13.04
		C123.12,93.22,117.22,93.22,111.15,93.22z M220.97,106.33c6.54,0,12.46,0,18.44,0c0-4.57,0-8.84,0-13.08c-6.34,0-12.25,0-18.44,0
		C220.97,97.7,220.97,101.83,220.97,106.33z M101.95,203.83c-6.53,0-12.45,0-18.39,0c0,4.75,0,9.06,0,13.47c6.28,0,12.22,0,18.39,0
		C101.95,212.7,101.95,208.37,101.95,203.83z M111.19,203.61c0,4.62,0,9.2,0,13.56c6.35,0,12.26,0,18.14,0c0-4.72,0-9.04,0-13.56
		C123.16,203.61,117.36,203.61,111.19,203.61z M239.63,203.75c-6.53,0-12.48,0-18.65,0c0,4.67,0,9.01,0,13.43c6.41,0,12.5,0,18.65,0
		C239.63,212.57,239.63,208.35,239.63,203.75z M138.68,217.34c6.27,0,12.04,0,17.97,0c0-4.69,0-9.14,0-13.67
		c-6.15,0-11.91,0-17.97,0C138.68,208.25,138.68,212.58,138.68,217.34z M211.82,203.81c-6.45,0-12.36,0-18.16,0
		c0,4.75,0,9.09,0,13.37c6.26,0,12.17,0,18.16,0C211.82,212.59,211.82,208.39,211.82,203.81z M156.83,93.36c-6.5,0-12.37,0-18.09,0
		c0,4.58,0,8.73,0,12.83c6.23,0,12.08,0,18.09,0C156.83,101.73,156.83,97.71,156.83,93.36z M184.15,93.35c-6.17,0-12.06,0-17.83,0
		c0,4.58,0,8.75,0,12.96c6.15,0,11.91,0,17.83,0C184.15,101.83,184.15,97.66,184.15,93.35z M193.62,106.34c6.42,0,12.16,0,17.97,0
		c0-4.57,0-8.85,0-13.1c-6.17,0-11.92,0-17.97,0C193.62,97.69,193.62,101.85,193.62,106.34z M184.1,217.57c0-5.01,0-9.35,0-13.69
		c-6.21,0-12.08,0-17.74,0c0,4.79,0,9.11,0,13.69c4.65,0,8.88,0,13.11,0C180.86,217.57,182.26,217.57,184.1,217.57z"/>
	<path class="st0" d="M68.77,155.77c0,17.02,0.01,34.03,0,51.05c-0.01,8.14-0.47,8.58-8.8,8.59c-4.08,0-8.16-0.12-12.23,0.03
		c-4.1,0.15-5.86-1.85-5.87-5.73c-0.02-5.67-0.01-11.34-0.01-17.02c0-29.78-0.01-59.56,0-89.34c0-7.24,1.01-8.21,8.3-8.22
		c4.08-0.01,8.16,0.12,12.23-0.03c4.98-0.18,6.43,2.49,6.41,6.97C68.73,119.97,68.77,137.87,68.77,155.77z M51.23,104.17
		c0,34.54,0,68.46,0,102.36c3,0,5.58,0,8.31,0c0-34.22,0-68.15,0-102.36C56.66,104.17,54.09,104.17,51.23,104.17z"/>
	<path class="st0" d="M280.33,155.6c0,17.37,0.01,34.74-0.01,52.12c-0.01,7.2-0.49,7.67-7.44,7.69c-4.08,0.01-8.15,0.02-12.23,0
		c-6.07-0.04-7.06-1-7.07-7.14c-0.02-29.6-0.01-59.21-0.01-88.81c0-5.67-0.03-11.35,0.01-17.02c0.04-5.96,1.27-7.23,7.06-7.29
		c4.08-0.04,8.15-0.03,12.23-0.01c6.58,0.04,7.44,0.84,7.45,7.28C280.35,120.14,280.33,137.87,280.33,155.6z M262.79,104.18
		c0,34.58,0,68.48,0,102.43c3.07,0,5.67,0,8.45,0c0-34.26,0-68.31,0-102.43C268.24,104.18,265.65,104.18,262.79,104.18z"/>
	<text transform="matrix(1 0 0 1 124.727 58.809)" class="st0 st1 st2">MALL</text>
</g>
</svg>
