<?xml version="1.0" encoding="utf-8"?>
<!-- Generator: Adobe Illustrator 24.2.1, SVG Export Plug-In . SVG Version: 6.00 Build 0)  -->
<svg version="1.1" id="Layer_1" xmlns="http://www.w3.org/2000/svg" xmlns:xlink="http://www.w3.org/1999/xlink" x="0px" y="0px"
	 viewBox="0 0 541 493" style="enable-background:new 0 0 541 493;" xml:space="preserve">
<style type="text/css">
	.st0{fill:#3073BA;}
</style>
<g>
	<path class="st0" d="M368.54,467.82c3.98,0,7.65,0,11.33,0c9,0,18-0.08,27,0.04c2.59,0.04,3.39-0.69,3.61-3.4
		c0.58-7.3-0.23-12.14-8.87-15.38c-14.17-5.3-21.52-22.23-18.21-36.83c3.56-15.76,17.17-26.76,32.84-27.19
		c6.51-0.18,12.53,1.67,17.6,4.82c12.45,7.72,18.8,19.31,16.57,34.15c-2.08,13.83-10.33,23.18-23.68,27.59
		c-2.88,0.95-3.8,2.19-3.54,5.03c0.23,2.5,0.2,5.04,0,7.54c-0.23,2.8,0.72,3.7,3.62,3.68c20.4-0.12,40.8-0.07,61.2-0.07
		c0.72,0,1.45-0.06,2.16,0.02c1.96,0.21,2.99-0.49,2.72-2.6c-0.05-0.35-0.06-0.73-0.01-1.08c1.06-7.11-0.17-11.71-8.33-14.93
		c-11.32-4.47-16.8-14.92-18.54-26.81c-2.24-15.34,2.02-29.74,7.93-43.56c3.4-7.95,7.7-15.75,12.84-22.69
		c7.82-10.56,17.59-10.35,25.49,0.01c11.43,14.99,17.85,32.17,20.27,50.73c0.79,6.06,0.78,12.54-0.49,18.48
		c-3.01,14.09-11.58,23.63-25.94,27.3c0,4.99,0,9.84,0,15.01c9.8,0,19.35,0,29.25,0c0,4.39,0,8.47,0,12.76
		c-176.94,0-353.75,0-530.86,0c0-4.08,0-8.08,0-12.58c12.78,0,25.53,0,38.52,0c0-8.2,0-15.92,0-23.88c-1.29,0.21-2.32,0.4-3.36,0.54
		c-15.21,2.03-28.76-7.52-32.27-22.73c-3.19-13.84,1.7-26.89,13.12-35.04c2.58-1.84,7.79-9.04,8.66-11.96
		c3.79-12.75,14.88-19.7,26.19-16.25c6.74,2.05,11.19,6.74,13.77,13.17c0.7,1.75,1.35,2.72,3.48,2.67
		c9.93-0.22,19.67,9.58,19.97,20.26c0.12,4.3-1.42,8.62-1.89,12.97c-0.27,2.5-0.52,5.27,0.27,7.56c4.8,13.85,0.36,27.94-11.42,34.83
		c-6.37,3.73-13.05,4.5-19.97,1.44c-0.85-0.38-1.76-0.63-3.4-1.2c0,5.7-0.04,11,0.08,16.29c0.01,0.44,1.13,1.07,1.82,1.22
		c1.04,0.22,2.15,0.09,3.23,0.09c29.28,0,58.56-0.06,87.83,0.08c3.58,0.02,4.35-1.14,4.33-4.5c-0.14-21.57-0.08-43.14-0.08-64.71
		c0-77.67,0.01-155.35,0.01-233.02c0-49.25,0-98.51,0.01-147.76c0-6.59,1.93-8.57,8.54-8.58c27-0.02,54-0.01,81-0.01
		c15.45,0,30.9,0.01,46.35,0.01c23,0,46-0.03,69-0.01c8.34,0.01,10.08,1.81,10.08,10.07c0,141.22,0.01,282.43-0.02,423.65
		c0,4.49-0.56,8.98-0.55,13.47C367.79,460.17,368.25,463.83,368.54,467.82z M166.19,22.39c0,2.09,0,3.63,0,5.17
		c0,41.1,0,82.2,0,123.3c0,104.16,0.02,208.32-0.08,312.48c0,3.61,0.85,4.67,4.56,4.62c14.28-0.23,28.56-0.09,42.84-0.1
		c1.26,0,2.53-0.11,4.01-0.19c0-1.62,0-2.8,0-3.99c0-13.55,0-27.09,0-40.64c0-8.39,1.7-10.14,10.07-10.15
		c22.68-0.02,45.36,0.01,68.04-0.03c5.99-0.01,8.13,1.91,8.14,7.8c0.02,14.39,0.09,28.77-0.06,43.15c-0.03,3.06,0.66,4.16,3.95,4.12
		c14.76-0.17,29.52-0.07,44.28-0.09c1.04,0,2.08-0.13,3.18-0.21c0-148.5,0-296.73,0-445.25C292.12,22.39,229.44,22.39,166.19,22.39z
		 M56.05,419.81c0,2.12-0.34,4.08,0.07,5.87c0.76,3.32,1.37,6.89,3.1,9.71c3.5,5.72,10.88,6.36,15.85,1.92
		c4.86-4.34,6.2-10.18,4.14-15.73c-2.73-7.35-2.61-13.96,0.11-21.21c2.64-7.02-2.05-13.04-9.4-13.19
		c-4.86-0.09-8.43-2.41-10.91-6.43c-0.93-1.51-1.52-3.25-2.24-4.89c-1.24-2.82-3.22-4.79-6.36-5.2c-3.26-0.42-5.76,1.23-7.06,3.93
		c-1.1,2.27-1.64,4.95-1.82,7.5c-0.48,6.5-3.32,11.17-9.59,13.37c-12.81,4.51-14.32,17.95-10.91,26.29
		c3.2,7.82,10.44,11.61,17.84,9.62c3.01-0.81,4.9-2.19,4.41-5.73c-0.26-1.85-0.05-3.76-0.05-5.84
		C47.55,419.81,51.47,419.81,56.05,419.81z M230.63,425.82c-0.06,1.14-0.15,1.96-0.15,2.78c-0.02,11.86,0.06,23.71-0.11,35.56
		c-0.05,3.1,1.09,3.76,3.96,3.74c17.5-0.12,35-0.05,52.5-0.07c1.27,0,2.54-0.12,3.82-0.18c0-14.19,0-27.98,0-41.84
		C270.6,425.82,250.84,425.82,230.63,425.82z M505.93,410.52c0,9.57,0,19,0,28.65c10.35-3.69,14.97-14.33,14.42-24.42
		c-0.93-17.03-6.3-32.82-15.67-47.07c-4.99-7.59-5.58-7.67-10.83,0.2c-7.12,10.67-11.46,22.58-14.05,35.09
		c-1.76,8.5-2.67,17.12,1.35,25.32c2.39,4.89,5.71,8.97,11.87,10.94c0-9.81,0-19.19,0-28.7
		C497.47,410.52,501.37,410.52,505.93,410.52z M423.39,419.74c0,6.57,0,12.73,0,18.97c9.34-2.5,15.78-12.98,14.34-22.39
		c-1.64-10.76-12.35-19.24-20.02-18.59c-13.04,1.11-21.74,9.37-21.88,21.19c-0.12,10.65,5.66,18.62,14.51,19.53
		c0-5.27-0.11-10.51,0.09-15.73c0.04-1.02,1.22-2.78,2-2.85C415.86,419.56,419.32,419.74,423.39,419.74z"/>
	<path class="st0" d="M44.04,260.53c-0.27-1.09-0.77-2.17-0.77-3.26c-0.04-49.4-0.04-98.79-0.03-148.19c0-5.82,2.26-8.08,8.03-8.08
		c25.68-0.01,51.35-0.01,77.03,0c1.17,0,2.33,0.11,3.71,0.18c0,4.16,0,8.06,0,12.65c-1.36,0-2.72,0-4.09,0
		c-22.44,0-44.88,0.08-67.32-0.08c-3.58-0.03-4.66,0.81-4.65,4.55c0.14,41.96,0.09,83.92,0.06,125.89c0,1.64-0.43,3.27-0.65,4.91
		C51.6,252.91,47.82,256.72,44.04,260.53z"/>
	<path class="st0" d="M465.92,227.04c-0.21-1.64-0.61-3.28-0.61-4.92c-0.04-34.15-0.03-68.3-0.03-102.44c0-1.77,0-3.54,0-5.81
		c-25.33,0-50.31,0-75.49,0c0-4.41,0-8.32,0-12.86c1.38,0,2.76,0,4.13,0c25.07,0,50.13,0,75.2,0c7.16,0,9.44,2.31,9.43,9.44
		c-0.02,39.78-0.03,79.56-0.04,119.34c0,2.28,0.13,4.56-0.04,6.82c-0.05,0.64-0.94,1.22-1.44,1.83
		C473.33,234.64,469.62,230.84,465.92,227.04z"/>
	<path class="st0" d="M465.92,227.04c3.71,3.8,7.41,7.6,11.11,11.4c0.49,1.39,1.42,2.78,1.43,4.17c0.1,33.43,0.09,66.86,0.1,100.29
		c0,0.7-0.11,1.39-0.2,2.33c-4.28,0-8.4,0-12.87,0c-0.07-1.6-0.21-3.12-0.21-4.64c-0.03-37.02-0.04-74.04-0.02-111.06
		C465.26,228.7,465.69,227.87,465.92,227.04z"/>
	<path class="st0" d="M44.04,260.53c3.78-3.81,7.56-7.63,11.34-11.44c0.23,0.87,0.65,1.75,0.66,2.62
		c0.03,27.43,0.03,54.87,0.02,82.3c0,0.58-0.1,1.16-0.14,1.69c-8.47,2.34-12.87-0.6-12.75-8.82c0.28-20.36,0.07-40.73,0.13-61.1
		C43.28,264.04,43.78,262.29,44.04,260.53z"/>
	<path class="st0" d="M404.95,363.79c-4.51,0-8.64,0-13.13,0c0-9.14,0-18.07,0-27.01c0-9,0-9.01,8.93-9.07
		c1.4-0.01,2.79,0.17,4.2,0.26C404.95,340.03,404.95,351.72,404.95,363.79z"/>
	<path class="st0" d="M441.65,328.05c0,12.09,0,23.79,0,35.72c-4.29,0-8.43,0-12.82,0c0-11.81,0-23.6,0-35.72
		C433.03,328.05,437.24,328.05,441.65,328.05z"/>
	<path class="st0" d="M392.1,263.78c4.29,0,8.32,0,12.49,0c0.16,0.7,0.45,1.38,0.46,2.07c0.06,10.43,0.13,20.86,0,31.28
		c-0.01,0.91-1.42,2.51-2.28,2.58c-3.44,0.3-6.91,0.12-10.67,0.12C392.1,287.52,392.1,275.74,392.1,263.78z"/>
	<path class="st0" d="M404.98,199.9c0,11.95,0,23.43,0,35.19c-4.34,0-8.57,0-12.99,0c0-11.75,0-23.34,0-35.19
		C396.17,199.9,400.4,199.9,404.98,199.9z"/>
	<path class="st0" d="M428.84,199.71c4.21,0,8.34,0,12.72,0c0,11.78,0,23.43,0,35.37c-4.18,0-8.3,0-12.72,0
		C428.84,223.5,428.84,211.85,428.84,199.71z"/>
	<path class="st0" d="M428.79,299.36c0-11.86,0-23.62,0-35.54c4.4,0,8.51,0,12.84,0c0,11.87,0,23.53,0,35.54
		C437.45,299.36,433.34,299.36,428.79,299.36z"/>
	<path class="st0" d="M129.24,363.79c-4.22,0-8.22,0-12.4,0c0-11.98,0-23.75,0-35.8c4.13,0,8.13,0,12.4,0
		C129.24,339.85,129.24,351.62,129.24,363.79z"/>
	<path class="st0" d="M92.53,363.83c-4.17,0-8.08,0-12.3,0c0-11.89,0-23.75,0-35.88c4.07,0,8.06,0,12.3,0
		C92.53,339.86,92.53,351.64,92.53,363.83z"/>
	<path class="st0" d="M441.5,171.06c-4.04,0-7.84,0-12.29,0c0-11.84,0-23.43,0-35.3c4.23,0,8.12,0,12.29,0
		C441.5,147.41,441.5,159.09,441.5,171.06z"/>
	<path class="st0" d="M80.18,263.81c4.15,0,8.05,0,12.28,0c0,11.73,0,23.47,0,35.57c-4.01,0-8.09,0-12.28,0
		C80.18,287.52,80.18,275.77,80.18,263.81z"/>
	<path class="st0" d="M92.47,171.11c-4.04,0-7.95,0-12.2,0c0-11.68,0-23.35,0-35.33c3.87,0,7.87,0,12.2,0
		C92.47,147.42,92.47,159.17,92.47,171.11z"/>
	<path class="st0" d="M80.07,235.16c0-11.99,0-23.56,0-35.39c4.13,0,8.13,0,12.42,0c0,11.72,0,23.45,0,35.39
		C88.37,235.16,84.38,235.16,80.07,235.16z"/>
	<path class="st0" d="M116.86,263.74c4.24,0,8.16,0,12.31,0c0.12,1.01,0.31,1.92,0.32,2.83c0.02,9.95-0.05,19.9,0.05,29.84
		c0.02,2.43-0.63,3.49-3.23,3.33c-3.07-0.19-6.16-0.05-9.45-0.05C116.86,287.5,116.86,275.81,116.86,263.74z"/>
	<path class="st0" d="M129.2,235.19c-4.26,0-8.17,0-12.32,0c0-11.83,0-23.48,0-35.42c4.01,0,8.01,0,12.32,0
		C129.2,211.46,129.2,223.2,129.2,235.19z"/>
	<path class="st0" d="M116.65,135.65c4.49,0,8.41,0,12.82,0c0,7.54,0,14.92,0,22.3c0,3.47,0,6.93,0.05,10.4
		c0.03,2.01-0.57,3.04-2.89,3.01c-11.77-0.18-9.87,1.05-9.97-9.56C116.58,153.19,116.65,144.59,116.65,135.65z"/>
	<path class="st0" d="M116.78,428.03c0-12.09,0-23.65,0-35.52c4.12,0,8.11,0,12.71,0c0,3.49,0.02,7.02-0.01,10.55
		c-0.06,6.81-0.37,13.63-0.11,20.43c0.12,3.25-1.41,4.29-4,4.5C122.66,428.19,119.92,428.03,116.78,428.03z"/>
	<path class="st0" d="M404.41,135.74c0,10.01,0,19.65,0,29.3c0,1.44,0.12,2.89-0.09,4.3c-0.1,0.64-0.84,1.65-1.32,1.67
		c-3.52,0.14-7.05,0.08-11.17,0.08c0.24-2.79,0.7-5.45,0.66-8.1c-0.11-7.4-0.48-14.79-0.63-22.19c-0.1-4.88,0.42-5.31,5.31-5.32
		c2.15,0,4.31,0.02,6.46,0.05C403.96,135.54,404.3,135.71,404.41,135.74z"/>
	<path class="st0" d="M242.94,156c1.15,0,2.31,0,3.46,0c9.71-0.01,19.43,0.06,29.14-0.07c2.35-0.03,3.27,0.58,3.16,2.98
		c-0.15,3.2-0.04,6.41-0.04,9.76c-12.08,0-23.78,0-35.72,0C242.94,164.48,242.94,160.48,242.94,156z"/>
	<path class="st0" d="M298.34,229.63c11.98,0,23.67,0,35.44,0c0,4.2,0,8.12,0,12.34c-11.8,0-23.46,0-35.44,0
		C298.34,237.88,298.34,233.9,298.34,229.63z"/>
	<path class="st0" d="M278.49,266.31c0,4.21,0,8.13,0,12.34c-11.91,0-23.65,0-35.6,0c0-4.08,0-8.08,0-12.34
		C254.75,266.31,266.48,266.31,278.49,266.31z"/>
	<path class="st0" d="M278.49,303.1c0,3.89,0,7.92,0,12.23c-11.93,0-23.66,0-35.6,0c0-4.01,0-7.92,0-12.23
		C254.64,303.1,266.47,303.1,278.49,303.1z"/>
	<path class="st0" d="M242.77,241.96c0-4.23,0-8.05,0-12.25c11.83,0,23.59,0,35.62,0c0,3.93,0,7.93,0,12.25
		C266.61,241.96,254.85,241.96,242.77,241.96z"/>
	<path class="st0" d="M223.63,229.42c0,4.39,0,8.19,0,12.76c-2.62,0-5.17,0-7.73,0c-8.14,0-16.29-0.07-24.43,0.06
		c-2.65,0.04-3.79-0.57-3.77-3.55c0.06-9.26-0.07-9.26,9.15-9.26C205.67,229.42,214.47,229.42,223.63,229.42z"/>
	<path class="st0" d="M298.05,351.9c0-3.59-0.13-6.93,0.1-10.25c0.05-0.76,1.34-2.05,2.07-2.06c11.07-0.13,22.14-0.09,33.45-0.09
		c0,4.19,0,8.08,0,12.4C322.06,351.9,310.3,351.9,298.05,351.9z"/>
	<path class="st0" d="M298.27,119.58c12.08,0,23.64,0,35.41,0c0,4.15,0,8.04,0,12.29c-11.69,0-23.43,0-35.41,0
		C298.27,127.78,298.27,123.8,298.27,119.58z"/>
	<path class="st0" d="M223.56,352.28c-5.73,0-11.19,0.01-16.64,0c-5.39-0.01-10.77-0.08-16.16-0.02c-2.05,0.02-2.94-0.56-3.04-2.82
		c-0.43-9.94-0.5-9.94,9.53-9.94c8.71,0,17.42,0,26.3,0C223.56,343.75,223.56,347.65,223.56,352.28z"/>
	<path class="st0" d="M333.74,302.76c0,4.4,0,8.29,0,12.39c-1.05,0.15-1.96,0.38-2.87,0.38c-9.8,0.04-19.61-0.03-29.41,0.09
		c-2.62,0.03-3.49-0.76-3.49-3.46c-0.01-9.41-0.12-9.41,9.23-9.4C315.91,302.76,324.62,302.76,333.74,302.76z"/>
	<path class="st0" d="M298.03,82.8c12.12,0,23.69,0,35.57,0c0,4.05,0,7.93,0,12.18c-1.56,0.13-3.29,0.39-5.01,0.4
		c-8.98,0.06-17.97-0.03-26.95,0.12c-2.79,0.04-3.88-0.84-3.65-3.7C298.2,88.96,298.03,86.09,298.03,82.8z"/>
	<path class="st0" d="M223.56,82.44c0,4.49,0,8.41,0,12.98c-4.2,0-8.45,0-12.7,0c-6.52,0-13.05-0.09-19.57,0.04
		c-2.54,0.05-3.58-0.57-3.59-3.38c-0.05-9.41-0.16-9.48,9.39-9.39c7.63,0.07,15.25,0.36,22.88,0.49
		C220.99,83.19,222.02,82.77,223.56,82.44z"/>
	<path class="st0" d="M242.86,46.3c11.99,0,23.57,0,35.75,0c0,3.68,0.17,7.23-0.15,10.73c-0.06,0.66-2.07,1.61-3.19,1.62
		c-10.75,0.12-21.51,0.07-32.41,0.07C242.86,54.48,242.86,50.6,242.86,46.3z"/>
	<path class="st0" d="M278.46,119.62c0,4.19,0,8.21,0,12.3c-11.87,0-23.65,0-35.6,0c0-4.17,0-8.07,0-12.3
		C254.65,119.62,266.44,119.62,278.46,119.62z"/>
	<path class="st0" d="M242.88,352.18c0-4.59,0-8.5,0-12.56c11.88,0,23.56,0,35.73,0c0,3.75,0.08,7.3-0.08,10.83
		c-0.03,0.6-1.13,1.65-1.75,1.65C265.56,352.21,254.34,352.18,242.88,352.18z"/>
	<path class="st0" d="M278.5,193.09c0,3.98,0,7.88,0,12.12c-11.95,0-23.72,0-35.37,0c-0.18-0.27-0.29-0.36-0.3-0.46
		c-1.12-12-1.12-12,10.83-12c8.03,0,16.05,0.01,24.08,0.02C277.85,192.78,277.95,192.86,278.5,193.09z"/>
	<path class="st0" d="M242.86,95.18c0-3.99,0-7.9,0-12.08c0.93-0.15,1.83-0.41,2.73-0.41c9.94-0.02,19.88,0.05,29.81-0.05
		c2.49-0.03,3.44,0.77,3.3,3.29c-0.17,2.97-0.04,5.95-0.04,9.24C266.56,95.18,254.8,95.18,242.86,95.18z"/>
	<path class="st0" d="M333.76,266.39c0,4.23,0,8.02,0,12.16c-11.79,0-23.43,0-35.4,0c0-3.9,0-7.88,0-12.16
		C310.04,266.39,321.8,266.39,333.76,266.39z"/>
	<path class="st0" d="M298.03,192.9c12.15,0,23.75,0,35.61,0c0,4.17,0,8.16,0,12.57c-3.13,0-6.2,0-9.28,0
		c-7.67,0-15.35-0.07-23.02,0.03c-2.42,0.03-3.52-0.64-3.36-3.23C298.17,199.29,298.03,196.3,298.03,192.9z"/>
	<path class="st0" d="M223.57,168.81c-8.99,0-17.71,0-26.42,0c-9.99,0-9.93,0-9.41-10.07c0.1-2.01,0.78-2.74,2.75-2.73
		c10.54,0.05,21.07,0.02,31.61,0.04c0.45,0,0.9,0.2,1.47,0.33C223.57,160.4,223.57,164.3,223.57,168.81z"/>
	<path class="st0" d="M333.76,156.32c0,4.21,0,8.02,0,12.09c-0.71,0.13-1.5,0.38-2.28,0.38c-9.96,0.03-19.91-0.06-29.87,0.08
		c-2.85,0.04-3.85-0.87-3.63-3.7c0.22-2.84,0.05-5.7,0.05-8.85C310.03,156.32,321.71,156.32,333.76,156.32z"/>
	<path class="st0" d="M242.97,376.21c11.34,0,22.45-0.04,33.56,0.09c0.71,0.01,1.92,1.31,2.03,2.12c1.35,10.39,1.2,10.52-9.16,10.51
		c-8.72,0-17.43,0-26.43,0C242.97,384.78,242.97,380.8,242.97,376.21z"/>
	<path class="st0" d="M333.73,46.52c0,3.95,0,7.74,0,11.89c-11.84,0-23.6,0-35.53,0c0-3.95,0-7.75,0-11.89
		C309.97,46.52,321.64,46.52,333.73,46.52z"/>
	<path class="st0" d="M223.61,266.14c0,4.32,0,8.13,0,12.36c-1.15,0.13-2.28,0.36-3.41,0.37c-9.6,0.03-19.19-0.06-28.79,0.07
		c-2.78,0.04-3.71-0.79-3.7-3.66c0.03-9.13-0.08-9.13,8.95-9.13C205.52,266.14,214.37,266.14,223.61,266.14z"/>
	<path class="st0" d="M223.51,192.94c0,4.17,0,8.07,0,12.24c-0.9,0.1-1.81,0.28-2.72,0.28c-9.71,0.02-19.43-0.08-29.14,0.06
		c-2.86,0.04-3.99-0.63-3.95-3.75c0.1-9.02-0.04-9.02,9.07-9.02c7.55,0,15.11-0.01,22.66,0.01
		C220.72,192.76,222.01,192.87,223.51,192.94z"/>
	<path class="st0" d="M333.75,376.41c0,4.17,0,7.96,0,12.12c-1.02,0.13-2.03,0.37-3.04,0.37c-9.7,0.03-19.4-0.07-29.1,0.07
		c-2.85,0.04-3.82-0.93-3.62-3.72c0.2-2.84,0.05-5.71,0.05-8.84C310.02,376.41,321.69,376.41,333.75,376.41z"/>
	<path class="st0" d="M223.72,303.01c0,3.73,0.11,7.18-0.09,10.62c-0.04,0.67-1.25,1.81-1.92,1.82c-10.55,0.12-21.1,0.13-31.64-0.02
		c-0.77-0.01-1.51-1.5-2.26-2.31c-0.06-0.07-0.02-0.23-0.03-0.35c-0.6-10.01-0.6-10.01,9.44-10.01c7.43,0,14.86-0.01,22.3,0.01
		C220.8,302.77,222.08,302.91,223.72,303.01z"/>
	<path class="st0" d="M187.78,46.38c12.29,0,23.88,0,35.72,0c0,4.07,0,7.95,0,12.37c-1.77,0-3.41,0-5.04,0
		c-9.12,0-18.24-0.06-27.35,0.03c-2.4,0.02-3.53-0.63-3.37-3.24C187.92,52.6,187.78,49.62,187.78,46.38z"/>
	<path class="st0" d="M223.74,131.78c-1.32,0.15-2.25,0.35-3.17,0.35c-9.83,0.02-19.66-0.04-29.49,0.06
		c-2.43,0.02-3.32-0.71-3.37-3.25c-0.18-9.59-0.26-9.59,9.21-9.59c7.91,0,15.82,0.06,23.74-0.03c2.28-0.03,3.26,0.65,3.13,3.07
		C223.61,125.47,223.74,128.55,223.74,131.78z"/>
	<path class="st0" d="M223.71,376.38c0,3.72,0.13,7.17-0.11,10.6c-0.05,0.69-1.46,1.84-2.25,1.85c-10.42,0.12-20.85,0.13-31.27-0.03
		c-0.78-0.01-1.53-1.48-2.28-2.28c-0.06-0.07-0.01-0.23-0.02-0.35c-0.58-10-0.58-10,9.44-10c7.43,0,14.86-0.01,22.29,0.01
		C220.79,376.18,222.07,376.3,223.71,376.38z"/>
</g>
</svg>
